<svg xmlns="http://www.w3.org/2000/svg" xmlns:xlink="http://www.w3.org/1999/xlink" width="1920" zoomAndPan="magnify" viewBox="0 0 1440 809.999993" height="1080" preserveAspectRatio="xMidYMid meet" version="1.0"><defs><clipPath id="33d0a16e52"><path d="M 0 187.878906 L 528 187.878906 L 528 271.878906 L 0 271.878906 Z M 0 187.878906 " clip-rule="nonzero"/></clipPath><clipPath id="2686050c76"><path d="M 433 230 L 1007 230 L 1007 314 L 433 314 Z M 433 230 " clip-rule="nonzero"/></clipPath><clipPath id="5a200a39d6"><path d="M 948 259.09375 L 1440 259.09375 L 1440 343.09375 L 948 343.09375 Z M 948 259.09375 " clip-rule="nonzero"/></clipPath><clipPath id="10406809bd"><path d="M 0 405 L 528 405 L 528 489 L 0 489 Z M 0 405 " clip-rule="nonzero"/></clipPath><clipPath id="e5d09a5548"><path d="M 433 447.121094 L 1007 447.121094 L 1007 531.121094 L 433 531.121094 Z M 433 447.121094 " clip-rule="nonzero"/></clipPath><clipPath id="9c2825c6f3"><path d="M 948 476.214844 L 1440 476.214844 L 1440 560.214844 L 948 560.214844 Z M 948 476.214844 " clip-rule="nonzero"/></clipPath><clipPath id="44e3066eed"><path d="M 0 650.726562 L 528 650.726562 L 528 734.726562 L 0 734.726562 Z M 0 650.726562 " clip-rule="nonzero"/></clipPath><clipPath id="593bef2694"><path d="M 433 692.847656 L 1007 692.847656 L 1007 776.847656 L 433 776.847656 Z M 433 692.847656 " clip-rule="nonzero"/></clipPath><clipPath id="53fdcf9372"><path d="M 948 721.941406 L 1440 721.941406 L 1440 805.941406 L 948 805.941406 Z M 948 721.941406 " clip-rule="nonzero"/></clipPath><clipPath id="1e462f4c78"><path d="M 0 0 L 476 0 L 476 68.039062 L 0 68.039062 Z M 0 0 " clip-rule="nonzero"/></clipPath><clipPath id="2066b8ec74"><path d="M 381 26.15625 L 956 26.15625 L 956 110.15625 L 381 110.15625 Z M 381 26.15625 " clip-rule="nonzero"/></clipPath><clipPath id="358cde4326"><path d="M 897 55.25 L 1440 55.25 L 1440 139.25 L 897 139.25 Z M 897 55.25 " clip-rule="nonzero"/></clipPath></defs><rect x="-144" width="1728" fill="#ffffff" y="-80.999999" height="971.999992" fill-opacity="1"/><rect x="-144" width="1728" fill="#caf0f8" y="-80.999999" height="971.999992" fill-opacity="1"/><g clip-path="url(#33d0a16e52)"><path fill="#0097b2" d="M -46.28125 229.976562 C -43.730469 228.167969 -41.078125 226.496094 -38.394531 224.886719 C -35.710938 223.269531 -32.980469 221.738281 -30.222656 220.246094 C -24.699219 217.277344 -19.054688 214.523438 -13.308594 211.988281 C -1.824219 206.890625 10.046875 202.621094 22.15625 199.109375 C 28.214844 197.359375 34.335938 195.824219 40.507812 194.46875 C 46.675781 193.113281 52.898438 191.992188 59.152344 191.042969 C 60.71875 190.820312 62.28125 190.582031 63.847656 190.371094 L 68.558594 189.785156 C 71.707031 189.445312 74.855469 189.109375 78.015625 188.867188 L 80.382812 188.667969 L 82.753906 188.515625 C 84.335938 188.421875 85.914062 188.292969 87.5 188.238281 L 92.25 188.035156 L 97.007812 187.9375 C 103.347656 187.871094 109.695312 187.957031 116.039062 188.285156 C 117.625 188.351562 119.207031 188.480469 120.792969 188.582031 L 123.167969 188.746094 L 125.542969 188.957031 C 127.121094 189.105469 128.707031 189.230469 130.285156 189.394531 L 135.019531 189.929688 C 141.324219 190.710938 147.628906 191.597656 153.867188 192.820312 L 156.210938 193.253906 C 156.992188 193.394531 157.765625 193.574219 158.546875 193.734375 L 163.210938 194.714844 C 164.761719 195.0625 166.308594 195.4375 167.855469 195.796875 L 170.175781 196.34375 C 170.953125 196.527344 171.71875 196.734375 172.488281 196.933594 C 184.808594 200.074219 196.941406 203.984375 208.761719 208.65625 L 213.191406 210.417969 C 214.660156 211.019531 216.117188 211.65625 217.578125 212.277344 L 219.769531 213.210938 C 220.503906 213.519531 221.230469 213.832031 221.953125 214.167969 L 226.289062 216.140625 L 228.453125 217.132812 L 230.597656 218.171875 L 234.878906 220.257812 L 235.949219 220.78125 L 237.007812 221.324219 L 243.351562 224.601562 C 265.019531 236.082031 287.8125 245.421875 311.441406 251.863281 C 312.179688 252.066406 312.910156 252.285156 313.65625 252.472656 L 315.875 253.042969 C 317.363281 253.417969 318.839844 253.808594 320.328125 254.167969 L 324.800781 255.199219 C 325.546875 255.367188 326.289062 255.554688 327.039062 255.703125 L 329.289062 256.167969 C 335.277344 257.441406 341.3125 258.480469 347.375 259.394531 C 359.496094 261.152344 371.734375 262.1875 384.007812 262.453125 C 396.277344 262.699219 408.585938 262.230469 420.835938 260.980469 C 426.960938 260.367188 433.074219 259.542969 439.160156 258.5625 C 445.25 257.589844 451.316406 256.410156 457.34375 255.058594 C 463.378906 253.722656 469.371094 252.175781 475.324219 250.472656 C 481.28125 248.773438 487.1875 246.882812 493.042969 244.816406 C 498.890625 242.746094 504.691406 240.507812 510.40625 238.046875 C 513.269531 236.828125 516.105469 235.546875 518.925781 234.210938 C 520.332031 233.546875 521.730469 232.859375 523.125 232.15625 C 524.511719 231.453125 525.902344 230.738281 527.261719 229.976562 C 524.710938 231.78125 522.0625 233.453125 519.378906 235.066406 C 516.699219 236.679688 513.964844 238.214844 511.207031 239.707031 C 505.6875 242.675781 500.039062 245.429688 494.296875 247.96875 C 482.808594 253.070312 470.941406 257.339844 458.832031 260.855469 C 452.769531 262.601562 446.652344 264.140625 440.480469 265.496094 C 434.3125 266.847656 428.085938 267.972656 421.835938 268.921875 C 415.578125 269.886719 409.285156 270.585938 402.96875 271.097656 L 400.601562 271.296875 L 398.230469 271.449219 C 396.648438 271.542969 395.070312 271.671875 393.484375 271.726562 L 388.734375 271.929688 L 383.976562 272.027344 C 377.636719 272.097656 371.285156 272.007812 364.941406 271.679688 C 363.355469 271.617188 361.773438 271.480469 360.191406 271.378906 L 357.8125 271.21875 L 355.441406 271.007812 C 353.859375 270.863281 352.277344 270.734375 350.695312 270.570312 L 345.957031 270.035156 C 339.652344 269.257812 333.355469 268.363281 327.113281 267.144531 L 324.769531 266.707031 C 323.988281 266.566406 323.214844 266.386719 322.433594 266.226562 L 317.769531 265.246094 C 316.21875 264.898438 314.671875 264.523438 313.125 264.167969 L 310.804688 263.621094 C 310.027344 263.4375 309.261719 263.226562 308.492188 263.03125 L 303.875 261.832031 C 302.339844 261.417969 300.820312 260.960938 299.289062 260.523438 C 296.222656 259.679688 293.203125 258.683594 290.167969 257.738281 C 289.40625 257.507812 288.652344 257.253906 287.902344 256.996094 L 285.644531 256.226562 L 283.390625 255.453125 C 282.636719 255.195312 281.882812 254.941406 281.140625 254.660156 L 276.667969 253.011719 C 275.925781 252.734375 275.175781 252.464844 274.433594 252.179688 L 272.21875 251.300781 L 267.789062 249.539062 C 266.320312 248.933594 264.867188 248.296875 263.402344 247.679688 L 261.210938 246.742188 C 260.480469 246.433594 259.75 246.121094 259.027344 245.785156 L 254.691406 243.8125 L 252.527344 242.820312 L 250.386719 241.777344 L 246.101562 239.695312 L 245.035156 239.171875 L 243.976562 238.625 L 241.859375 237.535156 L 237.632812 235.347656 C 215.96875 223.859375 193.171875 214.515625 169.546875 208.074219 C 168.808594 207.871094 168.074219 207.652344 167.332031 207.460938 L 165.109375 206.894531 C 163.625 206.519531 162.144531 206.128906 160.660156 205.765625 L 156.183594 204.734375 C 155.4375 204.570312 154.695312 204.382812 153.945312 204.230469 L 151.695312 203.769531 C 145.707031 202.496094 139.671875 201.449219 133.613281 200.539062 C 121.492188 198.78125 109.253906 197.742188 96.976562 197.480469 C 84.703125 197.226562 72.398438 197.703125 60.148438 198.949219 C 54.019531 199.566406 47.910156 200.390625 41.820312 201.371094 C 35.730469 202.34375 29.667969 203.527344 23.636719 204.875 C 17.601562 206.214844 11.609375 207.761719 5.652344 209.464844 C -0.300781 211.164062 -6.207031 213.058594 -12.058594 215.125 C -17.910156 217.195312 -23.710938 219.4375 -29.425781 221.894531 C -32.289062 223.117188 -35.125 224.398438 -37.941406 225.734375 C -39.347656 226.398438 -40.746094 227.085938 -42.140625 227.792969 C -43.53125 228.492188 -44.917969 229.207031 -46.28125 229.976562 " fill-opacity="1" fill-rule="nonzero"/></g><g clip-path="url(#2686050c76)"><path fill="#0097b2" d="M 433.226562 272.09375 C 435.78125 270.289062 438.429688 268.617188 441.113281 267.007812 C 443.796875 265.390625 446.527344 263.859375 449.285156 262.367188 C 454.808594 259.398438 460.453125 256.644531 466.199219 254.105469 C 477.683594 249.007812 489.554688 244.742188 501.664062 241.230469 C 507.722656 239.480469 513.84375 237.945312 520.015625 236.589844 C 526.183594 235.234375 532.40625 234.113281 538.660156 233.164062 C 540.226562 232.941406 541.789062 232.699219 543.359375 232.492188 L 548.070312 231.902344 C 551.214844 231.566406 554.363281 231.230469 557.523438 230.988281 L 559.890625 230.789062 L 562.261719 230.636719 C 563.84375 230.542969 565.425781 230.414062 567.007812 230.359375 L 571.757812 230.15625 L 576.515625 230.058594 C 582.855469 229.988281 589.207031 230.078125 595.546875 230.40625 C 597.132812 230.472656 598.714844 230.601562 600.300781 230.703125 L 602.675781 230.867188 L 605.050781 231.074219 C 606.632812 231.222656 608.214844 231.351562 609.792969 231.515625 L 614.527344 232.046875 C 620.832031 232.828125 627.136719 233.714844 633.375 234.9375 L 635.71875 235.375 C 636.5 235.515625 637.273438 235.695312 638.054688 235.855469 L 642.722656 236.835938 C 644.269531 237.183594 645.816406 237.558594 647.363281 237.917969 L 649.6875 238.460938 C 650.460938 238.644531 651.226562 238.855469 651.996094 239.050781 C 664.320312 242.195312 676.449219 246.101562 688.269531 250.773438 L 692.699219 252.535156 C 694.167969 253.140625 695.625 253.777344 697.085938 254.394531 L 699.277344 255.332031 C 700.011719 255.640625 700.738281 255.953125 701.460938 256.289062 L 705.796875 258.261719 L 707.964844 259.25 L 710.105469 260.292969 L 714.386719 262.375 L 715.457031 262.898438 L 716.515625 263.445312 L 722.859375 266.722656 C 744.53125 278.203125 767.320312 287.542969 790.949219 293.984375 C 791.6875 294.1875 792.421875 294.40625 793.164062 294.59375 L 795.386719 295.160156 C 796.871094 295.535156 798.351562 295.925781 799.835938 296.289062 L 804.308594 297.320312 C 805.054688 297.488281 805.796875 297.675781 806.546875 297.824219 L 808.796875 298.289062 C 814.785156 299.5625 820.820312 300.601562 826.882812 301.511719 C 839.003906 303.273438 851.242188 304.308594 863.515625 304.570312 C 875.785156 304.820312 888.09375 304.351562 900.34375 303.101562 C 906.46875 302.488281 912.582031 301.664062 918.667969 300.683594 C 924.757812 299.707031 930.824219 298.527344 936.851562 297.179688 C 942.886719 295.839844 948.878906 294.296875 954.832031 292.59375 C 960.789062 290.894531 966.695312 289.003906 972.550781 286.9375 C 978.402344 284.863281 984.199219 282.625 989.914062 280.167969 C 992.777344 278.949219 995.613281 277.664062 998.433594 276.332031 C 999.839844 275.667969 1001.238281 274.980469 1002.632812 274.277344 C 1004.023438 273.574219 1005.410156 272.859375 1006.773438 272.09375 C 1004.21875 273.902344 1001.570312 275.574219 998.886719 277.1875 C 996.207031 278.800781 993.472656 280.335938 990.71875 281.828125 C 985.195312 284.796875 979.546875 287.550781 973.804688 290.089844 C 962.316406 295.191406 950.449219 299.460938 938.339844 302.976562 C 932.28125 304.722656 926.160156 306.261719 919.992188 307.617188 C 913.820312 308.96875 907.59375 310.09375 901.34375 311.042969 C 895.085938 312.007812 888.792969 312.707031 882.476562 313.21875 L 880.109375 313.417969 L 877.738281 313.570312 C 876.15625 313.664062 874.578125 313.792969 872.992188 313.847656 L 868.242188 314.050781 L 863.484375 314.148438 C 857.144531 314.214844 850.792969 314.128906 844.453125 313.800781 C 842.863281 313.738281 841.28125 313.601562 839.699219 313.5 L 837.320312 313.339844 L 834.949219 313.128906 C 833.367188 312.980469 831.785156 312.855469 830.203125 312.6875 L 825.464844 312.15625 C 819.160156 311.378906 812.863281 310.484375 806.621094 309.265625 L 804.28125 308.828125 C 803.496094 308.683594 802.722656 308.507812 801.945312 308.347656 L 797.277344 307.367188 C 795.726562 307.019531 794.179688 306.644531 792.632812 306.285156 L 790.3125 305.742188 C 789.535156 305.558594 788.769531 305.34375 788 305.148438 L 783.382812 303.953125 C 781.847656 303.539062 780.328125 303.078125 778.796875 302.644531 C 775.730469 301.796875 772.710938 300.800781 769.675781 299.859375 C 768.914062 299.628906 768.160156 299.375 767.410156 299.117188 L 765.15625 298.34375 L 762.898438 297.574219 C 762.144531 297.3125 761.390625 297.0625 760.648438 296.78125 L 756.175781 295.128906 C 755.433594 294.851562 754.683594 294.585938 753.941406 294.296875 L 751.726562 293.421875 L 747.296875 291.65625 C 745.828125 291.054688 744.375 290.417969 742.910156 289.796875 L 740.71875 288.863281 C 739.988281 288.554688 739.257812 288.242188 738.535156 287.90625 L 734.199219 285.929688 L 732.035156 284.941406 L 725.613281 281.8125 L 724.542969 281.289062 L 723.484375 280.746094 L 721.367188 279.652344 L 717.140625 277.46875 C 695.476562 265.976562 672.679688 256.636719 649.054688 250.191406 C 648.316406 249.988281 647.582031 249.769531 646.84375 249.582031 L 644.617188 249.015625 C 643.132812 248.640625 641.652344 248.25 640.167969 247.886719 L 635.695312 246.855469 C 634.945312 246.6875 634.203125 246.5 633.453125 246.351562 L 631.207031 245.886719 C 625.214844 244.617188 619.179688 243.570312 613.121094 242.660156 C 601 240.902344 588.761719 239.863281 576.484375 239.601562 C 564.210938 239.347656 551.90625 239.824219 539.65625 241.070312 C 533.527344 241.683594 527.417969 242.511719 521.328125 243.488281 C 515.238281 244.464844 509.175781 245.648438 503.144531 246.996094 C 497.109375 248.332031 491.117188 249.882812 485.164062 251.585938 C 479.207031 253.285156 473.300781 255.175781 467.449219 257.242188 C 461.597656 259.316406 455.796875 261.558594 450.082031 264.015625 C 447.21875 265.234375 444.382812 266.519531 441.570312 267.855469 C 440.160156 268.519531 438.761719 269.207031 437.367188 269.910156 C 435.976562 270.613281 434.589844 271.328125 433.226562 272.09375 " fill-opacity="1" fill-rule="nonzero"/></g><g clip-path="url(#5a200a39d6)"><path fill="#0097b2" d="M 948.539062 301.1875 C 951.089844 299.382812 953.742188 297.710938 956.425781 296.097656 C 959.109375 294.484375 961.839844 292.949219 964.597656 291.457031 C 970.121094 288.492188 975.765625 285.738281 981.511719 283.199219 C 992.996094 278.101562 1004.867188 273.835938 1016.976562 270.324219 C 1023.035156 268.570312 1029.15625 267.039062 1035.324219 265.683594 C 1041.496094 264.324219 1047.71875 263.207031 1053.972656 262.257812 C 1055.535156 262.035156 1057.101562 261.792969 1058.667969 261.585938 L 1063.378906 260.996094 C 1066.527344 260.660156 1069.675781 260.324219 1072.835938 260.078125 L 1075.203125 259.882812 L 1077.574219 259.730469 C 1079.152344 259.636719 1080.734375 259.507812 1082.320312 259.453125 L 1087.070312 259.25 L 1091.824219 259.152344 C 1098.167969 259.082031 1104.515625 259.171875 1110.859375 259.5 C 1112.445312 259.566406 1114.027344 259.695312 1115.609375 259.796875 L 1117.988281 259.957031 L 1120.359375 260.167969 C 1121.941406 260.316406 1123.527344 260.445312 1125.105469 260.609375 L 1129.839844 261.140625 C 1136.144531 261.921875 1142.445312 262.808594 1148.6875 264.03125 L 1151.027344 264.46875 C 1151.8125 264.609375 1152.585938 264.789062 1153.363281 264.945312 L 1158.03125 265.929688 C 1159.582031 266.273438 1161.128906 266.648438 1162.675781 267.007812 L 1164.996094 267.554688 C 1165.769531 267.738281 1166.535156 267.949219 1167.308594 268.144531 C 1179.628906 271.289062 1191.761719 275.195312 1203.582031 279.867188 L 1208.011719 281.628906 C 1209.480469 282.234375 1210.9375 282.871094 1212.398438 283.488281 L 1214.589844 284.421875 C 1215.324219 284.734375 1216.050781 285.046875 1216.769531 285.382812 L 1221.105469 287.355469 L 1223.273438 288.34375 L 1225.417969 289.386719 L 1229.699219 291.46875 L 1230.769531 291.992188 L 1231.828125 292.539062 L 1238.171875 295.8125 C 1259.839844 307.296875 1282.632812 316.636719 1306.261719 323.078125 C 1307 323.28125 1307.730469 323.496094 1308.472656 323.6875 L 1310.695312 324.253906 C 1312.179688 324.628906 1313.660156 325.019531 1315.148438 325.382812 L 1319.621094 326.414062 C 1320.367188 326.582031 1321.109375 326.765625 1321.859375 326.917969 L 1324.109375 327.382812 C 1330.097656 328.65625 1336.132812 329.691406 1342.195312 330.605469 C 1354.3125 332.367188 1366.554688 333.398438 1378.828125 333.664062 C 1391.097656 333.914062 1403.40625 333.445312 1415.65625 332.195312 C 1421.78125 331.578125 1427.890625 330.757812 1433.976562 329.777344 C 1440.070312 328.800781 1446.136719 327.621094 1452.164062 326.269531 C 1458.199219 324.933594 1464.191406 323.390625 1470.144531 321.6875 C 1476.097656 319.988281 1482.007812 318.09375 1487.863281 316.03125 C 1493.710938 313.957031 1499.511719 311.71875 1505.226562 309.261719 C 1508.089844 308.042969 1510.925781 306.757812 1513.746094 305.425781 C 1515.152344 304.761719 1516.550781 304.074219 1517.941406 303.371094 C 1519.332031 302.667969 1520.722656 301.953125 1522.082031 301.1875 C 1519.53125 302.996094 1516.882812 304.667969 1514.199219 306.28125 C 1511.519531 307.894531 1508.785156 309.429688 1506.027344 310.921875 C 1500.507812 313.890625 1494.859375 316.644531 1489.117188 319.183594 C 1477.628906 324.285156 1465.761719 328.554688 1453.652344 332.066406 C 1447.589844 333.816406 1441.46875 335.355469 1435.300781 336.710938 C 1429.128906 338.0625 1422.90625 339.183594 1416.652344 340.136719 C 1410.398438 341.101562 1404.105469 341.800781 1397.789062 342.3125 L 1395.421875 342.511719 L 1393.050781 342.664062 C 1391.46875 342.757812 1389.890625 342.886719 1388.304688 342.941406 L 1383.554688 343.144531 L 1378.796875 343.238281 C 1372.457031 343.308594 1366.105469 343.222656 1359.761719 342.894531 C 1358.175781 342.832031 1356.59375 342.695312 1355.011719 342.59375 L 1352.632812 342.433594 L 1350.261719 342.222656 C 1348.675781 342.074219 1347.09375 341.945312 1345.515625 341.78125 L 1340.777344 341.25 C 1334.472656 340.472656 1328.175781 339.578125 1321.933594 338.359375 L 1319.589844 337.921875 C 1318.808594 337.777344 1318.035156 337.601562 1317.253906 337.441406 L 1312.585938 336.460938 C 1311.039062 336.113281 1309.492188 335.738281 1307.945312 335.378906 L 1305.621094 334.835938 C 1304.847656 334.652344 1304.082031 334.4375 1303.3125 334.242188 L 1298.695312 333.042969 C 1297.160156 332.632812 1295.636719 332.171875 1294.109375 331.738281 C 1291.042969 330.890625 1288.023438 329.894531 1284.988281 328.953125 C 1284.226562 328.722656 1283.472656 328.46875 1282.722656 328.207031 L 1280.464844 327.4375 L 1278.210938 326.664062 C 1277.457031 326.40625 1276.703125 326.15625 1275.960938 325.875 L 1271.488281 324.222656 C 1270.746094 323.945312 1269.996094 323.679688 1269.253906 323.390625 L 1267.039062 322.515625 L 1262.609375 320.75 C 1261.140625 320.148438 1259.6875 319.511719 1258.222656 318.890625 L 1256.03125 317.957031 C 1255.300781 317.648438 1254.570312 317.332031 1253.847656 317 L 1249.511719 315.023438 L 1247.347656 314.03125 L 1245.207031 312.992188 L 1240.921875 310.90625 L 1239.855469 310.382812 L 1238.796875 309.839844 L 1236.679688 308.746094 L 1232.453125 306.5625 C 1210.785156 295.070312 1187.992188 285.730469 1164.367188 279.285156 C 1163.628906 279.082031 1162.894531 278.863281 1162.152344 278.675781 L 1159.929688 278.105469 C 1158.445312 277.730469 1156.964844 277.34375 1155.476562 276.980469 L 1151.003906 275.949219 C 1150.257812 275.78125 1149.515625 275.59375 1148.765625 275.445312 L 1146.515625 274.980469 C 1140.527344 273.710938 1134.492188 272.660156 1128.433594 271.753906 C 1116.308594 269.996094 1104.070312 268.953125 1091.796875 268.695312 C 1079.523438 268.4375 1067.21875 268.917969 1054.964844 270.164062 C 1048.839844 270.777344 1042.730469 271.605469 1036.640625 272.582031 C 1030.550781 273.558594 1024.488281 274.742188 1018.457031 276.089844 C 1012.421875 277.425781 1006.429688 278.976562 1000.472656 280.675781 C 994.519531 282.378906 988.613281 284.269531 982.761719 286.335938 C 976.910156 288.410156 971.109375 290.652344 965.394531 293.109375 C 962.53125 294.328125 959.695312 295.613281 956.878906 296.949219 C 955.46875 297.613281 954.070312 298.300781 952.679688 299.003906 C 951.289062 299.707031 949.902344 300.421875 948.539062 301.1875 " fill-opacity="1" fill-rule="nonzero"/></g><g clip-path="url(#10406809bd)"><path fill="#0097b2" d="M -46.28125 447.09375 C -43.730469 445.289062 -41.078125 443.617188 -38.394531 442.007812 C -35.710938 440.390625 -32.980469 438.859375 -30.222656 437.367188 C -24.699219 434.398438 -19.054688 431.644531 -13.308594 429.109375 C -1.824219 424.011719 10.046875 419.742188 22.15625 416.230469 C 28.214844 414.480469 34.335938 412.945312 40.507812 411.589844 C 46.675781 410.234375 52.898438 409.113281 59.152344 408.164062 C 60.71875 407.941406 62.28125 407.703125 63.847656 407.492188 L 68.558594 406.902344 C 71.707031 406.566406 74.855469 406.230469 78.015625 405.988281 L 80.382812 405.789062 L 82.753906 405.636719 C 84.335938 405.542969 85.914062 405.414062 87.5 405.359375 L 92.25 405.15625 L 97.007812 405.058594 C 103.347656 404.992188 109.695312 405.078125 116.039062 405.40625 C 117.625 405.472656 119.207031 405.601562 120.792969 405.703125 L 123.167969 405.867188 L 125.542969 406.078125 C 127.121094 406.222656 128.707031 406.351562 130.285156 406.515625 L 135.019531 407.046875 C 141.324219 407.828125 147.628906 408.71875 153.867188 409.9375 L 156.210938 410.375 C 156.992188 410.515625 157.765625 410.695312 158.546875 410.855469 L 163.210938 411.835938 C 164.761719 412.183594 166.308594 412.558594 167.855469 412.917969 L 170.175781 413.460938 C 170.953125 413.644531 171.71875 413.855469 172.488281 414.050781 C 184.808594 417.195312 196.941406 421.101562 208.761719 425.777344 L 213.191406 427.535156 C 214.660156 428.140625 216.117188 428.777344 217.578125 429.394531 L 219.769531 430.332031 C 220.503906 430.640625 221.230469 430.953125 221.953125 431.289062 L 226.289062 433.261719 L 228.453125 434.25 L 230.597656 435.292969 L 234.878906 437.375 L 235.949219 437.902344 L 237.007812 438.445312 L 243.351562 441.722656 C 265.019531 453.203125 287.8125 462.542969 311.441406 468.984375 C 312.179688 469.1875 312.910156 469.40625 313.65625 469.59375 L 315.875 470.164062 C 317.363281 470.539062 318.839844 470.925781 320.328125 471.289062 L 324.800781 472.320312 C 325.546875 472.488281 326.289062 472.675781 327.039062 472.824219 L 329.289062 473.289062 C 335.277344 474.5625 341.3125 475.601562 347.375 476.511719 C 359.496094 478.273438 371.734375 479.308594 384.007812 479.570312 C 396.277344 479.820312 408.585938 479.351562 420.835938 478.101562 C 426.960938 477.488281 433.074219 476.664062 439.160156 475.683594 C 445.25 474.707031 451.316406 473.527344 457.34375 472.179688 C 463.378906 470.84375 469.371094 469.296875 475.324219 467.59375 C 481.28125 465.894531 487.1875 464.003906 493.042969 461.9375 C 498.890625 459.867188 504.691406 457.625 510.40625 455.167969 C 513.269531 453.949219 516.105469 452.667969 518.925781 451.332031 C 520.332031 450.667969 521.730469 449.980469 523.125 449.277344 C 524.511719 448.574219 525.902344 447.859375 527.261719 447.09375 C 524.710938 448.902344 522.0625 450.574219 519.378906 452.1875 C 516.699219 453.800781 513.964844 455.335938 511.207031 456.828125 C 505.6875 459.796875 500.039062 462.550781 494.296875 465.089844 C 482.808594 470.191406 470.941406 474.460938 458.832031 477.976562 C 452.769531 479.722656 446.652344 481.261719 440.480469 482.617188 C 434.3125 483.96875 428.085938 485.09375 421.835938 486.042969 C 415.578125 487.007812 409.285156 487.707031 402.96875 488.21875 L 400.601562 488.417969 L 398.230469 488.570312 C 396.648438 488.664062 395.070312 488.792969 393.484375 488.847656 L 388.734375 489.050781 L 383.976562 489.148438 C 377.636719 489.214844 371.285156 489.128906 364.941406 488.800781 C 363.355469 488.738281 361.773438 488.601562 360.191406 488.5 L 357.8125 488.339844 L 355.441406 488.128906 C 353.859375 487.984375 352.277344 487.855469 350.695312 487.691406 L 345.957031 487.15625 C 339.652344 486.378906 333.355469 485.484375 327.113281 484.265625 L 324.769531 483.828125 C 323.988281 483.683594 323.214844 483.507812 322.433594 483.347656 L 317.769531 482.367188 C 316.21875 482.019531 314.671875 481.644531 313.125 481.285156 L 310.804688 480.742188 C 310.027344 480.558594 309.261719 480.34375 308.492188 480.148438 L 303.875 478.953125 C 302.339844 478.539062 300.820312 478.078125 299.289062 477.644531 C 296.222656 476.796875 293.203125 475.800781 290.167969 474.859375 C 289.40625 474.628906 288.652344 474.375 287.902344 474.117188 L 285.644531 473.34375 L 283.390625 472.574219 C 282.636719 472.316406 281.882812 472.0625 281.140625 471.78125 L 276.667969 470.132812 C 275.925781 469.851562 275.175781 469.585938 274.433594 469.300781 L 272.21875 468.421875 L 267.789062 466.660156 C 266.320312 466.054688 264.867188 465.417969 263.402344 464.796875 L 261.210938 463.863281 C 260.480469 463.554688 259.75 463.242188 259.027344 462.90625 L 254.691406 460.933594 L 252.527344 459.941406 L 250.386719 458.898438 L 246.101562 456.8125 L 245.035156 456.292969 L 241.859375 454.652344 L 237.632812 452.46875 C 215.96875 440.980469 193.171875 431.636719 169.546875 425.191406 C 168.808594 424.988281 168.074219 424.773438 167.332031 424.582031 L 165.109375 424.015625 C 163.625 423.640625 162.144531 423.25 160.660156 422.886719 L 156.183594 421.855469 C 155.4375 421.6875 154.695312 421.503906 153.945312 421.351562 L 151.695312 420.886719 C 145.707031 419.617188 139.671875 418.570312 133.613281 417.660156 C 121.492188 415.902344 109.253906 414.863281 96.976562 414.601562 C 84.703125 414.347656 72.398438 414.824219 60.148438 416.070312 C 54.019531 416.683594 47.910156 417.511719 41.820312 418.488281 C 35.730469 419.464844 29.667969 420.648438 23.636719 421.996094 C 17.601562 423.332031 11.609375 424.882812 5.652344 426.585938 C -0.300781 428.285156 -6.207031 430.175781 -12.058594 432.246094 C -17.910156 434.316406 -23.710938 436.558594 -29.425781 439.015625 C -32.289062 440.238281 -35.125 441.519531 -37.941406 442.855469 C -39.347656 443.519531 -40.746094 444.207031 -42.140625 444.910156 C -43.53125 445.613281 -44.917969 446.328125 -46.28125 447.09375 " fill-opacity="1" fill-rule="nonzero"/></g><g clip-path="url(#e5d09a5548)"><path fill="#0097b2" d="M 433.226562 489.214844 C 435.78125 487.410156 438.429688 485.738281 441.113281 484.125 C 443.796875 482.511719 446.527344 480.976562 449.285156 479.484375 C 454.808594 476.519531 460.453125 473.765625 466.199219 471.226562 C 477.683594 466.128906 489.554688 461.859375 501.664062 458.351562 C 507.722656 456.597656 513.84375 455.066406 520.015625 453.710938 C 526.183594 452.351562 532.40625 451.234375 538.660156 450.285156 C 540.226562 450.0625 541.789062 449.820312 543.359375 449.613281 L 548.070312 449.023438 C 551.214844 448.6875 554.363281 448.351562 557.523438 448.105469 L 559.890625 447.910156 L 562.261719 447.757812 C 563.84375 447.664062 565.425781 447.535156 567.007812 447.480469 L 571.757812 447.277344 L 576.515625 447.179688 C 582.855469 447.109375 589.207031 447.199219 595.546875 447.527344 C 597.132812 447.59375 598.714844 447.722656 600.300781 447.824219 L 602.675781 447.984375 L 605.050781 448.195312 C 606.632812 448.34375 608.214844 448.472656 609.792969 448.636719 L 614.527344 449.167969 C 620.832031 449.949219 627.136719 450.835938 633.375 452.058594 L 635.71875 452.496094 C 636.5 452.636719 637.273438 452.816406 638.054688 452.972656 L 642.722656 453.957031 C 644.269531 454.300781 645.816406 454.675781 647.363281 455.035156 L 649.6875 455.582031 C 650.460938 455.765625 651.226562 455.976562 651.996094 456.171875 C 664.320312 459.316406 676.449219 463.222656 688.269531 467.894531 L 692.699219 469.65625 C 694.167969 470.257812 695.625 470.898438 697.085938 471.515625 L 699.277344 472.449219 C 700.011719 472.761719 700.738281 473.074219 701.460938 473.410156 L 705.796875 475.382812 L 707.964844 476.371094 L 710.105469 477.414062 L 714.386719 479.496094 L 715.457031 480.019531 L 716.515625 480.566406 L 722.859375 483.839844 C 744.53125 495.324219 767.320312 504.664062 790.949219 511.105469 C 791.6875 511.308594 792.421875 511.523438 793.164062 511.714844 L 795.386719 512.28125 C 796.871094 512.65625 798.351562 513.046875 799.835938 513.410156 L 804.308594 514.441406 C 805.054688 514.609375 805.796875 514.792969 806.546875 514.945312 L 808.796875 515.410156 C 814.785156 516.683594 820.820312 517.71875 826.882812 518.632812 C 839.003906 520.390625 851.242188 521.425781 863.515625 521.691406 C 875.785156 521.941406 888.09375 521.472656 900.34375 520.222656 C 906.46875 519.605469 912.582031 518.785156 918.667969 517.804688 C 924.757812 516.828125 930.824219 515.648438 936.851562 514.296875 C 942.886719 512.960938 948.878906 511.414062 954.832031 509.714844 C 960.789062 508.011719 966.695312 506.121094 972.550781 504.058594 C 978.402344 501.984375 984.199219 499.746094 989.914062 497.289062 C 992.777344 496.070312 995.613281 494.785156 998.433594 493.453125 C 999.839844 492.789062 1001.238281 492.101562 1002.632812 491.398438 C 1004.023438 490.695312 1005.410156 489.980469 1006.773438 489.214844 C 1004.21875 491.023438 1001.570312 492.695312 998.886719 494.308594 C 996.207031 495.917969 993.472656 497.457031 990.71875 498.949219 C 985.195312 501.917969 979.546875 504.671875 973.804688 507.210938 C 962.316406 512.3125 950.449219 516.582031 938.339844 520.09375 C 932.28125 521.84375 926.160156 523.382812 919.992188 524.738281 C 913.820312 526.089844 907.59375 527.210938 901.34375 528.164062 C 895.085938 529.128906 888.792969 529.824219 882.476562 530.339844 L 880.109375 530.535156 L 877.738281 530.691406 C 876.15625 530.785156 874.578125 530.914062 872.992188 530.96875 L 868.242188 531.171875 L 863.484375 531.265625 C 857.144531 531.335938 850.792969 531.246094 844.453125 530.921875 C 842.863281 530.859375 841.28125 530.722656 839.699219 530.621094 L 837.320312 530.460938 L 834.949219 530.25 C 833.367188 530.101562 831.785156 529.972656 830.203125 529.808594 L 825.464844 529.277344 C 819.160156 528.5 812.863281 527.605469 806.621094 526.386719 L 804.28125 525.945312 C 803.496094 525.804688 802.722656 525.628906 801.945312 525.46875 L 797.277344 524.488281 C 795.726562 524.140625 794.179688 523.765625 792.632812 523.40625 L 790.3125 522.863281 C 789.535156 522.675781 788.769531 522.464844 788 522.269531 L 783.382812 521.070312 C 781.847656 520.660156 780.328125 520.199219 778.796875 519.765625 C 775.730469 518.917969 772.710938 517.921875 769.675781 516.980469 C 768.914062 516.75 768.160156 516.496094 767.410156 516.234375 L 765.15625 515.464844 L 762.898438 514.691406 C 762.144531 514.433594 761.390625 514.183594 760.648438 513.902344 L 756.175781 512.25 C 755.433594 511.972656 754.683594 511.707031 753.941406 511.417969 L 751.726562 510.542969 L 747.296875 508.777344 C 745.828125 508.175781 744.375 507.535156 742.910156 506.917969 L 740.71875 505.984375 C 739.988281 505.675781 739.257812 505.359375 738.535156 505.027344 L 734.199219 503.050781 L 732.035156 502.058594 L 729.894531 501.019531 L 725.613281 498.933594 L 724.542969 498.410156 L 723.484375 497.867188 L 721.367188 496.773438 L 717.140625 494.589844 C 695.476562 483.097656 672.679688 473.757812 649.054688 467.3125 C 648.316406 467.109375 647.582031 466.890625 646.84375 466.703125 L 644.617188 466.132812 C 643.132812 465.757812 641.652344 465.371094 640.167969 465.007812 L 635.695312 463.976562 C 634.945312 463.808594 634.203125 463.621094 633.453125 463.472656 L 631.207031 463.007812 C 625.214844 461.738281 619.179688 460.6875 613.121094 459.78125 C 601 458.023438 588.761719 456.980469 576.484375 456.722656 C 564.210938 456.464844 551.90625 456.945312 539.65625 458.191406 C 533.527344 458.804688 527.417969 459.632812 521.328125 460.609375 C 515.238281 461.585938 509.175781 462.769531 503.144531 464.117188 C 497.109375 465.453125 491.117188 467.003906 485.164062 468.703125 C 479.207031 470.40625 473.300781 472.296875 467.449219 474.363281 C 461.597656 476.4375 455.796875 478.675781 450.082031 481.136719 C 447.21875 482.355469 444.382812 483.640625 441.570312 484.976562 C 440.160156 485.640625 438.761719 486.328125 437.367188 487.03125 C 435.976562 487.734375 434.589844 488.449219 433.226562 489.214844 " fill-opacity="1" fill-rule="nonzero"/></g><g clip-path="url(#9c2825c6f3)"><path fill="#0097b2" d="M 948.539062 518.308594 C 951.089844 516.503906 953.742188 514.832031 956.425781 513.21875 C 959.109375 511.605469 961.839844 510.070312 964.597656 508.578125 C 970.121094 505.613281 975.765625 502.859375 981.511719 500.320312 C 992.996094 495.222656 1004.867188 490.953125 1016.976562 487.441406 C 1023.035156 485.691406 1029.15625 484.160156 1035.324219 482.800781 C 1041.496094 481.445312 1047.71875 480.328125 1053.972656 479.378906 C 1055.535156 479.15625 1057.101562 478.914062 1058.667969 478.707031 L 1063.378906 478.117188 C 1066.527344 477.777344 1069.675781 477.441406 1072.835938 477.199219 L 1075.203125 477.003906 L 1077.574219 476.851562 C 1079.152344 476.757812 1080.734375 476.628906 1082.320312 476.574219 L 1087.070312 476.371094 L 1091.824219 476.273438 C 1098.167969 476.203125 1104.515625 476.292969 1110.859375 476.621094 C 1112.445312 476.6875 1114.027344 476.8125 1115.609375 476.914062 L 1117.988281 477.078125 L 1120.359375 477.289062 C 1121.941406 477.4375 1123.527344 477.566406 1125.105469 477.726562 L 1129.839844 478.261719 C 1136.144531 479.042969 1142.445312 479.929688 1148.6875 481.152344 L 1151.027344 481.589844 C 1151.8125 481.730469 1152.585938 481.910156 1153.363281 482.066406 L 1158.03125 483.046875 C 1159.582031 483.394531 1161.128906 483.769531 1162.675781 484.128906 L 1164.996094 484.675781 C 1165.769531 484.859375 1166.535156 485.070312 1167.308594 485.265625 C 1179.628906 488.410156 1191.761719 492.316406 1203.582031 496.988281 L 1208.011719 498.75 C 1209.480469 499.351562 1210.9375 499.992188 1212.398438 500.609375 L 1214.589844 501.542969 C 1215.324219 501.851562 1216.050781 502.167969 1216.769531 502.5 L 1223.273438 505.464844 L 1225.417969 506.503906 L 1229.699219 508.589844 L 1230.769531 509.113281 L 1231.828125 509.660156 L 1238.171875 512.933594 C 1259.839844 524.417969 1282.632812 533.757812 1306.261719 540.195312 C 1307 540.398438 1307.730469 540.617188 1308.472656 540.808594 L 1310.695312 541.375 C 1312.179688 541.75 1313.660156 542.140625 1315.148438 542.503906 L 1319.621094 543.535156 C 1320.367188 543.699219 1321.109375 543.886719 1321.859375 544.039062 L 1324.109375 544.503906 C 1330.097656 545.777344 1336.132812 546.8125 1342.195312 547.726562 C 1354.3125 549.484375 1366.554688 550.519531 1378.828125 550.785156 C 1391.097656 551.03125 1403.40625 550.566406 1415.65625 549.316406 C 1421.78125 548.699219 1427.890625 547.878906 1433.976562 546.898438 C 1440.070312 545.921875 1446.136719 544.742188 1452.164062 543.390625 C 1458.199219 542.054688 1464.191406 540.507812 1470.144531 538.804688 C 1476.097656 537.105469 1482.007812 535.214844 1487.863281 533.148438 C 1493.710938 531.078125 1499.511719 528.839844 1505.226562 526.382812 C 1508.089844 525.164062 1510.925781 523.878906 1513.746094 522.546875 C 1515.152344 521.882812 1516.550781 521.195312 1517.941406 520.492188 C 1519.332031 519.789062 1520.722656 519.074219 1522.082031 518.308594 C 1519.53125 520.117188 1516.882812 521.785156 1514.199219 523.398438 C 1511.519531 525.011719 1508.785156 526.550781 1506.027344 528.042969 C 1500.507812 531.011719 1494.859375 533.765625 1489.117188 536.304688 C 1477.628906 541.40625 1465.761719 545.675781 1453.652344 549.1875 C 1447.589844 550.9375 1441.46875 552.472656 1435.300781 553.832031 C 1429.128906 555.183594 1422.90625 556.304688 1416.652344 557.253906 C 1410.398438 558.21875 1404.105469 558.917969 1397.789062 559.433594 L 1395.421875 559.628906 L 1393.050781 559.785156 C 1391.46875 559.878906 1389.890625 560.007812 1388.304688 560.0625 L 1383.554688 560.261719 L 1378.796875 560.359375 C 1372.457031 560.429688 1366.105469 560.339844 1359.761719 560.015625 C 1358.175781 559.953125 1356.59375 559.8125 1355.011719 559.714844 L 1352.632812 559.550781 L 1350.261719 559.34375 C 1348.675781 559.195312 1347.09375 559.066406 1345.515625 558.902344 L 1340.777344 558.371094 C 1334.472656 557.59375 1328.175781 556.695312 1321.933594 555.476562 L 1319.589844 555.039062 C 1318.808594 554.898438 1318.035156 554.722656 1317.253906 554.5625 L 1312.585938 553.578125 C 1311.039062 553.234375 1309.492188 552.859375 1307.945312 552.5 L 1305.621094 551.953125 C 1304.847656 551.769531 1304.082031 551.558594 1303.3125 551.363281 L 1298.695312 550.164062 C 1297.160156 549.75 1295.636719 549.292969 1294.109375 548.859375 C 1291.042969 548.011719 1288.023438 547.015625 1284.988281 546.074219 C 1284.226562 545.839844 1283.472656 545.585938 1282.722656 545.328125 L 1280.464844 544.558594 L 1278.210938 543.785156 C 1277.457031 543.527344 1276.703125 543.277344 1275.960938 542.996094 L 1271.488281 541.34375 C 1270.746094 541.066406 1269.996094 540.800781 1269.253906 540.511719 L 1267.039062 539.636719 L 1262.609375 537.871094 C 1261.140625 537.269531 1259.6875 536.628906 1258.222656 536.011719 L 1256.03125 535.078125 C 1255.300781 534.769531 1254.570312 534.453125 1253.847656 534.121094 L 1249.511719 532.144531 L 1247.347656 531.152344 L 1245.207031 530.113281 L 1240.921875 528.027344 L 1239.855469 527.503906 L 1238.796875 526.960938 L 1236.679688 525.867188 L 1232.453125 523.683594 C 1210.785156 512.191406 1187.992188 502.851562 1164.367188 496.40625 C 1163.628906 496.203125 1162.894531 495.984375 1162.152344 495.796875 L 1159.929688 495.226562 C 1158.445312 494.851562 1156.964844 494.460938 1155.476562 494.101562 L 1151.003906 493.070312 C 1150.257812 492.902344 1149.515625 492.714844 1148.765625 492.566406 L 1146.515625 492.101562 C 1140.527344 490.832031 1134.492188 489.78125 1128.433594 488.875 C 1116.308594 487.117188 1104.070312 486.074219 1091.796875 485.816406 C 1079.523438 485.558594 1067.21875 486.039062 1054.964844 487.28125 C 1048.839844 487.898438 1042.730469 488.726562 1036.640625 489.703125 C 1030.550781 490.679688 1024.488281 491.859375 1018.457031 493.210938 C 1012.421875 494.546875 1006.429688 496.09375 1000.472656 497.796875 C 994.519531 499.5 988.613281 501.390625 982.761719 503.457031 C 976.910156 505.53125 971.109375 507.769531 965.394531 510.230469 C 962.53125 511.449219 959.695312 512.734375 956.878906 514.066406 C 955.46875 514.734375 954.070312 515.421875 952.679688 516.125 C 951.289062 516.828125 949.902344 517.542969 948.539062 518.308594 " fill-opacity="1" fill-rule="nonzero"/></g><g clip-path="url(#44e3066eed)"><path fill="#0097b2" d="M -46.28125 692.820312 C -43.730469 691.015625 -41.078125 689.34375 -38.394531 687.734375 C -35.710938 686.117188 -32.980469 684.585938 -30.222656 683.09375 C -24.699219 680.125 -19.054688 677.371094 -13.308594 674.835938 C -1.824219 669.738281 10.046875 665.46875 22.15625 661.957031 C 28.214844 660.207031 34.335938 658.671875 40.507812 657.316406 C 46.675781 655.960938 52.898438 654.839844 59.152344 653.890625 C 60.71875 653.667969 62.28125 653.429688 63.847656 653.21875 L 68.558594 652.628906 C 71.707031 652.292969 74.855469 651.957031 78.015625 651.714844 L 80.382812 651.515625 L 82.753906 651.363281 C 84.335938 651.269531 85.914062 651.140625 87.5 651.085938 L 92.25 650.882812 L 97.007812 650.785156 C 103.347656 650.71875 109.695312 650.804688 116.039062 651.132812 C 117.625 651.199219 119.207031 651.328125 120.792969 651.429688 L 123.167969 651.59375 L 125.542969 651.804688 C 127.121094 651.949219 128.707031 652.078125 130.285156 652.242188 L 135.019531 652.773438 C 141.324219 653.554688 147.628906 654.445312 153.867188 655.664062 L 156.210938 656.101562 C 156.992188 656.242188 157.765625 656.421875 158.546875 656.582031 L 163.210938 657.5625 C 164.761719 657.910156 166.308594 658.285156 167.855469 658.644531 L 170.175781 659.1875 C 170.953125 659.371094 171.71875 659.582031 172.488281 659.777344 C 184.808594 662.921875 196.941406 666.828125 208.761719 671.503906 L 213.191406 673.261719 C 214.660156 673.867188 216.117188 674.503906 217.578125 675.121094 L 219.769531 676.058594 C 220.503906 676.367188 221.230469 676.679688 221.953125 677.015625 L 226.289062 678.988281 L 228.453125 679.976562 L 230.597656 681.019531 L 234.878906 683.101562 L 235.949219 683.628906 L 237.007812 684.171875 L 243.351562 687.449219 C 265.019531 698.929688 287.8125 708.269531 311.441406 714.710938 C 312.179688 714.914062 312.910156 715.132812 313.65625 715.320312 L 315.875 715.890625 C 317.363281 716.265625 318.839844 716.652344 320.328125 717.015625 L 324.800781 718.046875 C 325.546875 718.214844 326.289062 718.402344 327.039062 718.550781 L 329.289062 719.015625 C 335.277344 720.289062 341.3125 721.328125 347.375 722.238281 C 359.496094 724 371.734375 725.035156 384.007812 725.296875 C 396.277344 725.546875 408.585938 725.078125 420.835938 723.828125 C 426.960938 723.214844 433.074219 722.390625 439.160156 721.410156 C 445.25 720.433594 451.316406 719.253906 457.34375 717.90625 C 463.378906 716.570312 469.371094 715.023438 475.324219 713.320312 C 481.28125 711.621094 487.1875 709.730469 493.042969 707.664062 C 498.890625 705.59375 504.691406 703.351562 510.40625 700.894531 C 513.269531 699.675781 516.105469 698.394531 518.925781 697.058594 C 520.332031 696.394531 521.730469 695.707031 523.125 695.003906 C 524.511719 694.300781 525.902344 693.585938 527.261719 692.820312 C 524.710938 694.628906 522.0625 696.300781 519.378906 697.914062 C 516.699219 699.527344 513.964844 701.0625 511.207031 702.554688 C 505.6875 705.523438 500.039062 708.277344 494.296875 710.816406 C 482.808594 715.917969 470.941406 720.1875 458.832031 723.703125 C 452.769531 725.449219 446.652344 726.988281 440.480469 728.34375 C 434.3125 729.695312 428.085938 730.820312 421.835938 731.769531 C 415.578125 732.734375 409.285156 733.433594 402.96875 733.945312 L 400.601562 734.144531 L 398.230469 734.296875 C 396.648438 734.390625 395.070312 734.519531 393.484375 734.574219 L 388.734375 734.777344 L 383.976562 734.875 C 377.636719 734.941406 371.285156 734.855469 364.941406 734.527344 C 363.355469 734.464844 361.773438 734.328125 360.191406 734.226562 L 357.8125 734.066406 L 355.441406 733.855469 C 353.859375 733.710938 352.277344 733.582031 350.695312 733.417969 L 345.957031 732.882812 C 339.652344 732.105469 333.355469 731.210938 327.113281 729.992188 L 324.769531 729.554688 C 323.988281 729.410156 323.214844 729.234375 322.433594 729.074219 L 317.769531 728.09375 C 316.21875 727.746094 314.671875 727.371094 313.125 727.011719 L 310.804688 726.46875 C 310.027344 726.285156 309.261719 726.074219 308.492188 725.875 L 303.875 724.679688 C 302.339844 724.265625 300.820312 723.804688 299.289062 723.371094 C 296.222656 722.523438 293.203125 721.527344 290.167969 720.585938 C 289.40625 720.355469 288.652344 720.101562 287.902344 719.84375 L 285.644531 719.070312 L 283.390625 718.300781 C 282.636719 718.042969 281.882812 717.789062 281.140625 717.507812 L 276.667969 715.859375 C 275.925781 715.578125 275.175781 715.3125 274.433594 715.027344 L 272.21875 714.148438 L 267.789062 712.386719 C 266.320312 711.78125 264.867188 711.144531 263.402344 710.523438 L 261.210938 709.589844 C 260.480469 709.28125 259.75 708.96875 259.027344 708.632812 L 254.691406 706.660156 L 252.527344 705.667969 L 250.386719 704.625 L 246.101562 702.539062 L 245.035156 702.019531 L 241.859375 700.378906 L 237.632812 698.195312 C 215.96875 686.707031 193.171875 677.363281 169.546875 670.917969 C 168.808594 670.714844 168.074219 670.5 167.332031 670.308594 L 165.109375 669.742188 C 163.625 669.367188 162.144531 668.976562 160.660156 668.613281 L 156.183594 667.582031 C 155.4375 667.414062 154.695312 667.230469 153.945312 667.078125 L 151.695312 666.613281 C 145.707031 665.34375 139.671875 664.296875 133.613281 663.386719 C 121.492188 661.628906 109.253906 660.589844 96.976562 660.328125 C 84.703125 660.074219 72.398438 660.550781 60.148438 661.796875 C 54.019531 662.410156 47.910156 663.238281 41.820312 664.214844 C 35.730469 665.191406 29.667969 666.375 23.636719 667.722656 C 17.601562 669.058594 11.609375 670.609375 5.652344 672.3125 C -0.300781 674.011719 -6.207031 675.902344 -12.058594 677.972656 C -17.910156 680.042969 -23.710938 682.285156 -29.425781 684.742188 C -32.289062 685.964844 -35.125 687.246094 -37.941406 688.582031 C -39.347656 689.246094 -40.746094 689.933594 -42.140625 690.636719 C -43.53125 691.339844 -44.917969 692.054688 -46.28125 692.820312 " fill-opacity="1" fill-rule="nonzero"/></g><g clip-path="url(#593bef2694)"><path fill="#0097b2" d="M 433.226562 734.941406 C 435.78125 733.136719 438.429688 731.464844 441.113281 729.851562 C 443.796875 728.238281 446.527344 726.703125 449.285156 725.210938 C 454.808594 722.246094 460.453125 719.492188 466.199219 716.953125 C 477.683594 711.855469 489.554688 707.585938 501.664062 704.078125 C 507.722656 702.324219 513.84375 700.792969 520.015625 699.4375 C 526.183594 698.078125 532.40625 696.960938 538.660156 696.011719 C 540.226562 695.789062 541.789062 695.546875 543.359375 695.339844 L 548.070312 694.75 C 551.214844 694.414062 554.363281 694.078125 557.523438 693.832031 L 559.890625 693.636719 L 562.261719 693.484375 C 563.84375 693.390625 565.425781 693.261719 567.007812 693.207031 L 571.757812 693.003906 L 576.515625 692.90625 C 582.855469 692.835938 589.207031 692.925781 595.546875 693.253906 C 597.132812 693.320312 598.714844 693.449219 600.300781 693.550781 L 602.675781 693.710938 L 605.050781 693.921875 C 606.632812 694.070312 608.214844 694.199219 609.792969 694.363281 L 614.527344 694.894531 C 620.832031 695.675781 627.136719 696.5625 633.375 697.785156 L 635.71875 698.222656 C 636.5 698.363281 637.273438 698.542969 638.054688 698.699219 L 642.722656 699.683594 C 644.269531 700.027344 645.816406 700.402344 647.363281 700.761719 L 649.6875 701.308594 C 650.460938 701.492188 651.226562 701.703125 651.996094 701.898438 C 664.320312 705.042969 676.449219 708.949219 688.269531 713.621094 L 692.699219 715.382812 C 694.167969 715.984375 695.625 716.625 697.085938 717.242188 L 699.277344 718.175781 C 700.011719 718.488281 700.738281 718.800781 701.460938 719.136719 L 705.796875 721.109375 L 707.964844 722.097656 L 710.105469 723.140625 L 714.386719 725.222656 L 715.457031 725.746094 L 716.515625 726.292969 L 722.859375 729.566406 C 744.53125 741.050781 767.320312 750.390625 790.949219 756.832031 C 791.6875 757.035156 792.421875 757.25 793.164062 757.441406 L 795.386719 758.007812 C 796.871094 758.382812 798.351562 758.773438 799.835938 759.136719 L 804.308594 760.167969 C 805.054688 760.335938 805.796875 760.519531 806.546875 760.671875 L 808.796875 761.136719 C 814.785156 762.410156 820.820312 763.445312 826.882812 764.359375 C 839.003906 766.117188 851.242188 767.152344 863.515625 767.417969 C 875.785156 767.667969 888.09375 767.199219 900.34375 765.949219 C 906.46875 765.332031 912.582031 764.511719 918.667969 763.53125 C 924.757812 762.554688 930.824219 761.375 936.851562 760.023438 C 942.886719 758.6875 948.878906 757.140625 954.832031 755.441406 C 960.789062 753.738281 966.695312 751.847656 972.550781 749.785156 C 978.402344 747.710938 984.199219 745.472656 989.914062 743.015625 C 992.777344 741.796875 995.613281 740.511719 998.433594 739.179688 C 999.839844 738.515625 1001.238281 737.828125 1002.632812 737.125 C 1004.023438 736.421875 1005.410156 735.707031 1006.773438 734.941406 C 1004.21875 736.75 1001.570312 738.421875 998.886719 740.035156 C 996.207031 741.644531 993.472656 743.183594 990.71875 744.675781 C 985.195312 747.644531 979.546875 750.398438 973.804688 752.9375 C 962.316406 758.039062 950.449219 762.308594 938.339844 765.820312 C 932.28125 767.570312 926.160156 769.109375 919.992188 770.464844 C 913.820312 771.816406 907.59375 772.9375 901.34375 773.890625 C 895.085938 774.855469 888.792969 775.550781 882.476562 776.066406 L 880.109375 776.261719 L 877.738281 776.417969 C 876.15625 776.511719 874.578125 776.640625 872.992188 776.695312 L 868.242188 776.898438 L 863.484375 776.992188 C 857.144531 777.0625 850.792969 776.972656 844.453125 776.648438 C 842.863281 776.585938 841.28125 776.449219 839.699219 776.347656 L 837.320312 776.1875 L 834.949219 775.976562 C 833.367188 775.828125 831.785156 775.699219 830.203125 775.535156 L 825.464844 775.003906 C 819.160156 774.226562 812.863281 773.332031 806.621094 772.113281 L 804.28125 771.671875 C 803.496094 771.53125 802.722656 771.355469 801.945312 771.195312 L 797.277344 770.214844 C 795.726562 769.867188 794.179688 769.492188 792.632812 769.132812 L 790.3125 768.589844 C 789.535156 768.402344 788.769531 768.191406 788 767.996094 L 783.382812 766.796875 C 781.847656 766.386719 780.328125 765.925781 778.796875 765.492188 C 775.730469 764.644531 772.710938 763.648438 769.675781 762.707031 C 768.914062 762.476562 768.160156 762.222656 767.410156 761.960938 L 765.15625 761.191406 L 762.898438 760.417969 C 762.144531 760.160156 761.390625 759.910156 760.648438 759.628906 L 756.175781 757.976562 C 755.433594 757.699219 754.683594 757.433594 753.941406 757.144531 L 751.726562 756.269531 L 747.296875 754.503906 C 745.828125 753.902344 744.375 753.261719 742.910156 752.644531 L 740.71875 751.710938 C 739.988281 751.402344 739.257812 751.085938 738.535156 750.753906 L 734.199219 748.777344 L 732.035156 747.785156 L 729.894531 746.746094 L 725.613281 744.660156 L 724.542969 744.136719 L 723.484375 743.59375 L 721.367188 742.5 L 717.140625 740.316406 C 695.476562 728.824219 672.679688 719.484375 649.054688 713.039062 C 648.316406 712.835938 647.582031 712.617188 646.84375 712.429688 L 644.617188 711.859375 C 643.132812 711.484375 641.652344 711.097656 640.167969 710.734375 L 635.695312 709.703125 C 634.945312 709.535156 634.203125 709.347656 633.453125 709.199219 L 631.207031 708.734375 C 625.214844 707.464844 619.179688 706.414062 613.121094 705.507812 C 601 703.75 588.761719 702.707031 576.484375 702.449219 C 564.210938 702.191406 551.90625 702.671875 539.65625 703.917969 C 533.527344 704.53125 527.417969 705.359375 521.328125 706.335938 C 515.238281 707.3125 509.175781 708.496094 503.144531 709.84375 C 497.109375 711.179688 491.117188 712.730469 485.164062 714.429688 C 479.207031 716.132812 473.300781 718.023438 467.449219 720.089844 C 461.597656 722.164062 455.796875 724.402344 450.082031 726.863281 C 447.21875 728.082031 444.382812 729.367188 441.570312 730.703125 C 440.160156 731.367188 438.761719 732.054688 437.367188 732.757812 C 435.976562 733.460938 434.589844 734.175781 433.226562 734.941406 " fill-opacity="1" fill-rule="nonzero"/></g><g clip-path="url(#53fdcf9372)"><path fill="#0097b2" d="M 948.539062 764.035156 C 951.089844 762.230469 953.742188 760.558594 956.425781 758.945312 C 959.109375 757.332031 961.839844 755.796875 964.597656 754.304688 C 970.121094 751.339844 975.765625 748.585938 981.511719 746.046875 C 992.996094 740.949219 1004.867188 736.679688 1016.976562 733.167969 C 1023.035156 731.417969 1029.15625 729.886719 1035.324219 728.527344 C 1041.496094 727.171875 1047.71875 726.054688 1053.972656 725.105469 C 1055.535156 724.882812 1057.101562 724.640625 1058.667969 724.433594 L 1063.378906 723.84375 C 1066.527344 723.507812 1069.675781 723.167969 1072.835938 722.925781 L 1075.203125 722.730469 L 1077.574219 722.578125 C 1079.152344 722.484375 1080.734375 722.355469 1082.320312 722.300781 L 1087.070312 722.097656 L 1091.824219 722 C 1098.167969 721.929688 1104.515625 722.019531 1110.859375 722.347656 C 1112.445312 722.414062 1114.027344 722.542969 1115.609375 722.644531 L 1117.988281 722.804688 L 1120.359375 723.015625 C 1121.941406 723.164062 1123.527344 723.292969 1125.105469 723.457031 L 1129.839844 723.988281 C 1136.144531 724.769531 1142.445312 725.65625 1148.6875 726.878906 L 1151.027344 727.316406 C 1151.8125 727.457031 1152.585938 727.636719 1153.363281 727.792969 L 1158.03125 728.773438 C 1159.582031 729.121094 1161.128906 729.496094 1162.675781 729.855469 L 1164.996094 730.402344 C 1165.769531 730.585938 1166.535156 730.796875 1167.308594 730.992188 C 1179.628906 734.136719 1191.761719 738.042969 1203.582031 742.714844 L 1208.011719 744.476562 C 1209.480469 745.078125 1210.9375 745.71875 1212.398438 746.335938 L 1214.589844 747.269531 C 1215.324219 747.578125 1216.050781 747.894531 1216.769531 748.226562 L 1223.273438 751.191406 L 1225.417969 752.230469 L 1229.699219 754.316406 L 1230.769531 754.839844 L 1231.828125 755.386719 L 1238.171875 758.660156 C 1259.839844 770.144531 1282.632812 779.484375 1306.261719 785.921875 C 1307 786.125 1307.730469 786.34375 1308.472656 786.535156 L 1310.695312 787.101562 C 1312.179688 787.476562 1313.660156 787.867188 1315.148438 788.230469 L 1319.621094 789.261719 C 1320.367188 789.425781 1321.109375 789.613281 1321.859375 789.765625 L 1324.109375 790.230469 C 1330.097656 791.503906 1336.132812 792.539062 1342.195312 793.453125 C 1354.3125 795.210938 1366.554688 796.246094 1378.828125 796.511719 C 1391.097656 796.757812 1403.40625 796.292969 1415.65625 795.042969 C 1421.78125 794.425781 1427.890625 793.605469 1433.976562 792.625 C 1440.070312 791.648438 1446.136719 790.46875 1452.164062 789.117188 C 1458.199219 787.78125 1464.191406 786.234375 1470.144531 784.53125 C 1476.097656 782.832031 1482.007812 780.941406 1487.863281 778.875 C 1493.710938 776.804688 1499.511719 774.566406 1505.226562 772.109375 C 1508.089844 770.890625 1510.925781 769.605469 1513.746094 768.273438 C 1515.152344 767.609375 1516.550781 766.921875 1517.941406 766.21875 C 1519.332031 765.515625 1520.722656 764.800781 1522.082031 764.035156 C 1519.53125 765.84375 1516.882812 767.511719 1514.199219 769.125 C 1511.519531 770.738281 1508.785156 772.277344 1506.027344 773.769531 C 1500.507812 776.738281 1494.859375 779.492188 1489.117188 782.03125 C 1477.628906 787.132812 1465.761719 791.402344 1453.652344 794.914062 C 1447.589844 796.664062 1441.46875 798.199219 1435.300781 799.558594 C 1429.128906 800.910156 1422.90625 802.03125 1416.652344 802.980469 C 1410.398438 803.945312 1404.105469 804.644531 1397.789062 805.160156 L 1395.421875 805.355469 L 1393.050781 805.511719 C 1391.46875 805.605469 1389.890625 805.734375 1388.304688 805.789062 L 1383.554688 805.988281 L 1378.796875 806.085938 C 1372.457031 806.15625 1366.105469 806.066406 1359.761719 805.742188 C 1358.175781 805.679688 1356.59375 805.539062 1355.011719 805.441406 L 1352.632812 805.277344 L 1350.261719 805.070312 C 1348.675781 804.921875 1347.09375 804.792969 1345.515625 804.628906 L 1340.777344 804.097656 C 1334.472656 803.320312 1328.175781 802.421875 1321.933594 801.203125 L 1319.589844 800.765625 C 1318.808594 800.625 1318.035156 800.449219 1317.253906 800.289062 L 1312.585938 799.304688 C 1311.039062 798.960938 1309.492188 798.585938 1307.945312 798.226562 L 1305.621094 797.679688 C 1304.847656 797.496094 1304.082031 797.285156 1303.3125 797.089844 L 1298.695312 795.890625 C 1297.160156 795.476562 1295.636719 795.019531 1294.109375 794.585938 C 1291.042969 793.738281 1288.023438 792.742188 1284.988281 791.800781 C 1284.226562 791.566406 1283.472656 791.3125 1282.722656 791.054688 L 1280.464844 790.285156 L 1278.210938 789.511719 C 1277.457031 789.253906 1276.703125 789.003906 1275.960938 788.722656 L 1271.488281 787.070312 C 1270.746094 786.792969 1269.996094 786.527344 1269.253906 786.238281 L 1267.039062 785.363281 L 1262.609375 783.597656 C 1261.140625 782.996094 1259.6875 782.355469 1258.222656 781.738281 L 1256.03125 780.804688 C 1255.300781 780.496094 1254.570312 780.179688 1253.847656 779.847656 L 1249.511719 777.871094 L 1247.347656 776.878906 L 1245.207031 775.839844 L 1240.921875 773.753906 L 1239.855469 773.230469 L 1238.796875 772.6875 L 1236.679688 771.59375 L 1232.453125 769.410156 C 1210.785156 757.917969 1187.992188 748.578125 1164.367188 742.132812 C 1163.628906 741.929688 1162.894531 741.710938 1162.152344 741.523438 L 1159.929688 740.953125 C 1158.445312 740.578125 1156.964844 740.1875 1155.476562 739.828125 L 1151.003906 738.796875 C 1150.257812 738.628906 1149.515625 738.441406 1148.765625 738.292969 L 1146.515625 737.828125 C 1140.527344 736.558594 1134.492188 735.507812 1128.433594 734.601562 C 1116.308594 732.84375 1104.070312 731.800781 1091.796875 731.542969 C 1079.523438 731.285156 1067.21875 731.765625 1054.964844 733.007812 C 1048.839844 733.625 1042.730469 734.453125 1036.640625 735.429688 C 1030.550781 736.40625 1024.488281 737.585938 1018.457031 738.9375 C 1012.421875 740.273438 1006.429688 741.820312 1000.472656 743.523438 C 994.519531 745.226562 988.613281 747.117188 982.761719 749.183594 C 976.910156 751.257812 971.109375 753.496094 965.394531 755.957031 C 962.53125 757.175781 959.695312 758.460938 956.878906 759.792969 C 955.46875 760.460938 954.070312 761.148438 952.679688 761.851562 C 951.289062 762.554688 949.902344 763.269531 948.539062 764.035156 " fill-opacity="1" fill-rule="nonzero"/></g><g clip-path="url(#1e462f4c78)"><path fill="#0097b2" d="M -97.722656 26.132812 C -95.171875 24.328125 -92.523438 22.65625 -89.835938 21.042969 C -87.152344 19.429688 -84.421875 17.894531 -81.664062 16.402344 C -76.140625 13.4375 -70.496094 10.683594 -64.75 8.144531 C -53.265625 3.046875 -41.394531 -1.21875 -29.285156 -4.730469 C -23.230469 -6.484375 -17.105469 -8.015625 -10.9375 -9.371094 C -4.769531 -10.730469 1.457031 -11.847656 7.710938 -12.796875 C 9.273438 -13.019531 10.839844 -13.261719 12.40625 -13.46875 L 17.117188 -14.058594 C 20.265625 -14.394531 23.414062 -14.730469 26.570312 -14.976562 L 28.941406 -15.171875 L 31.3125 -15.324219 C 32.890625 -15.417969 34.472656 -15.546875 36.054688 -15.601562 L 40.808594 -15.804688 L 45.5625 -15.902344 C 51.90625 -15.972656 58.253906 -15.882812 64.597656 -15.554688 C 66.183594 -15.488281 67.765625 -15.359375 69.347656 -15.257812 L 71.726562 -15.097656 L 74.097656 -14.886719 C 75.679688 -14.738281 77.261719 -14.609375 78.84375 -14.445312 L 83.578125 -13.914062 C 89.882812 -13.132812 96.183594 -12.246094 102.421875 -11.023438 L 104.765625 -10.585938 C 105.550781 -10.445312 106.324219 -10.265625 107.101562 -10.109375 L 111.769531 -9.125 C 113.320312 -8.78125 114.863281 -8.40625 116.414062 -8.046875 L 118.734375 -7.5 C 119.507812 -7.316406 120.273438 -7.105469 121.046875 -6.910156 C 133.367188 -3.765625 145.5 0.140625 157.320312 4.8125 L 161.75 6.574219 C 163.21875 7.179688 164.671875 7.816406 166.136719 8.433594 L 168.328125 9.367188 C 169.058594 9.679688 169.789062 9.992188 170.507812 10.328125 L 174.84375 12.300781 L 177.011719 13.289062 L 179.152344 14.332031 L 183.4375 16.414062 L 184.503906 16.9375 L 185.566406 17.484375 L 191.910156 20.757812 C 213.578125 32.242188 236.371094 41.582031 260 48.023438 C 260.734375 48.226562 261.46875 48.441406 262.210938 48.632812 L 264.433594 49.199219 C 265.917969 49.574219 267.398438 49.964844 268.886719 50.328125 L 273.359375 51.359375 C 274.105469 51.527344 274.847656 51.710938 275.597656 51.863281 L 277.847656 52.328125 C 283.835938 53.601562 289.871094 54.636719 295.929688 55.550781 C 308.050781 57.3125 320.289062 58.34375 332.566406 58.609375 C 344.835938 58.859375 357.144531 58.390625 369.394531 57.140625 C 375.519531 56.523438 381.628906 55.703125 387.714844 54.722656 C 393.808594 53.746094 399.871094 52.566406 405.902344 51.214844 C 411.9375 49.878906 417.925781 48.335938 423.878906 46.632812 C 429.835938 44.929688 435.746094 43.039062 441.597656 40.976562 C 447.449219 38.902344 453.25 36.664062 458.960938 34.207031 C 461.824219 32.988281 464.664062 31.703125 467.480469 30.371094 C 468.890625 29.707031 470.289062 29.019531 471.679688 28.316406 C 473.070312 27.613281 474.460938 26.898438 475.820312 26.132812 C 473.269531 27.941406 470.621094 29.613281 467.9375 31.226562 C 465.257812 32.839844 462.523438 34.375 459.765625 35.867188 C 454.246094 38.835938 448.597656 41.589844 442.855469 44.128906 C 431.367188 49.230469 419.5 53.5 407.390625 57.011719 C 401.328125 58.761719 395.207031 60.300781 389.039062 61.65625 C 382.867188 63.007812 376.644531 64.128906 370.390625 65.082031 C 364.136719 66.046875 357.84375 66.746094 351.527344 67.257812 L 349.160156 67.457031 L 346.789062 67.609375 C 345.207031 67.703125 343.625 67.832031 342.042969 67.886719 L 337.289062 68.089844 L 332.535156 68.183594 C 326.195312 68.253906 319.84375 68.167969 313.5 67.839844 C 311.914062 67.777344 310.332031 67.640625 308.746094 67.539062 L 306.367188 67.378906 L 304 67.167969 C 302.414062 67.019531 300.832031 66.890625 299.253906 66.726562 L 294.515625 66.195312 C 288.210938 65.417969 281.914062 64.523438 275.671875 63.304688 L 273.328125 62.867188 C 272.546875 62.722656 271.773438 62.546875 270.992188 62.386719 L 266.324219 61.40625 C 264.773438 61.058594 263.230469 60.683594 261.679688 60.324219 L 259.359375 59.78125 C 258.585938 59.597656 257.820312 59.382812 257.050781 59.1875 L 252.433594 57.988281 C 250.898438 57.578125 249.375 57.117188 247.847656 56.683594 C 244.78125 55.835938 241.761719 54.839844 238.726562 53.898438 C 237.964844 53.667969 237.210938 53.414062 236.460938 53.152344 L 234.203125 52.382812 L 231.945312 51.609375 C 231.195312 51.351562 230.441406 51.101562 229.699219 50.820312 L 225.226562 49.167969 C 224.480469 48.890625 223.734375 48.625 222.992188 48.335938 L 220.777344 47.460938 L 216.347656 45.695312 C 214.878906 45.09375 213.421875 44.457031 211.960938 43.835938 L 209.769531 42.902344 C 209.035156 42.59375 208.304688 42.277344 207.585938 41.945312 L 203.25 39.96875 L 201.085938 38.976562 L 198.945312 37.9375 L 194.660156 35.851562 L 193.589844 35.328125 L 192.535156 34.785156 L 190.417969 33.691406 L 186.1875 31.507812 C 164.523438 20.015625 141.730469 10.675781 118.101562 4.230469 C 117.367188 4.027344 116.632812 3.808594 115.890625 3.621094 L 113.667969 3.050781 C 112.183594 2.675781 110.703125 2.289062 109.214844 1.925781 L 104.742188 0.894531 C 103.996094 0.726562 103.253906 0.539062 102.503906 0.390625 L 100.253906 -0.0742188 C 94.265625 -1.34375 88.230469 -2.394531 82.171875 -3.300781 C 70.046875 -5.058594 57.808594 -6.101562 45.535156 -6.359375 C 33.261719 -6.617188 20.953125 -6.136719 8.703125 -4.890625 C 2.578125 -4.277344 -3.53125 -3.449219 -9.621094 -2.472656 C -15.714844 -1.496094 -21.777344 -0.3125 -27.808594 1.035156 C -33.839844 2.371094 -39.832031 3.921875 -45.789062 5.621094 C -51.742188 7.324219 -57.652344 9.214844 -63.503906 11.28125 C -69.351562 13.355469 -75.152344 15.597656 -80.867188 18.054688 C -83.730469 19.273438 -86.566406 20.558594 -89.382812 21.894531 C -90.792969 22.558594 -92.191406 23.246094 -93.582031 23.949219 C -94.972656 24.652344 -96.359375 25.367188 -97.722656 26.132812 " fill-opacity="1" fill-rule="nonzero"/></g><g clip-path="url(#2066b8ec74)"><path fill="#0097b2" d="M 381.785156 68.253906 C 384.335938 66.449219 386.988281 64.777344 389.671875 63.164062 C 392.355469 61.550781 395.085938 60.015625 397.84375 58.523438 C 403.367188 55.558594 409.011719 52.804688 414.757812 50.265625 C 426.242188 45.167969 438.113281 40.898438 450.222656 37.386719 C 456.277344 35.636719 462.402344 34.101562 468.570312 32.746094 C 474.738281 31.390625 480.964844 30.273438 487.21875 29.324219 C 488.78125 29.101562 490.347656 28.859375 491.914062 28.648438 L 496.625 28.0625 C 499.773438 27.722656 502.921875 27.386719 506.082031 27.144531 L 508.449219 26.949219 L 510.820312 26.796875 C 512.398438 26.699219 513.980469 26.574219 515.566406 26.515625 L 520.316406 26.3125 L 525.070312 26.21875 C 531.414062 26.148438 537.761719 26.238281 544.105469 26.566406 C 545.691406 26.632812 547.273438 26.757812 548.855469 26.859375 L 551.234375 27.023438 L 553.605469 27.234375 C 555.1875 27.382812 556.773438 27.511719 558.351562 27.671875 L 563.085938 28.207031 C 569.390625 28.988281 575.691406 29.875 581.929688 31.097656 L 584.273438 31.53125 C 585.058594 31.675781 585.832031 31.855469 586.609375 32.011719 L 591.277344 32.992188 C 592.828125 33.339844 594.375 33.714844 595.921875 34.074219 L 598.242188 34.621094 C 599.015625 34.804688 599.78125 35.015625 600.554688 35.210938 C 612.875 38.355469 625.007812 42.261719 636.828125 46.933594 L 641.257812 48.695312 C 642.726562 49.296875 644.183594 49.9375 645.644531 50.554688 L 647.835938 51.488281 C 648.570312 51.796875 649.296875 52.113281 650.015625 52.445312 L 656.519531 55.410156 L 658.664062 56.449219 L 662.945312 58.535156 L 664.015625 59.058594 L 665.074219 59.605469 L 671.417969 62.878906 C 693.085938 74.363281 715.878906 83.703125 739.507812 90.140625 C 740.246094 90.34375 740.976562 90.5625 741.71875 90.753906 L 743.941406 91.320312 C 745.425781 91.695312 746.90625 92.085938 748.394531 92.449219 L 752.867188 93.480469 C 753.613281 93.644531 754.355469 93.832031 755.105469 93.984375 L 757.355469 94.449219 C 763.34375 95.71875 769.378906 96.757812 775.441406 97.671875 C 787.558594 99.429688 799.796875 100.464844 812.074219 100.730469 C 824.34375 100.976562 836.652344 100.511719 848.902344 99.261719 C 855.027344 98.644531 861.136719 97.820312 867.222656 96.84375 C 873.316406 95.867188 879.378906 94.6875 885.410156 93.335938 C 891.445312 92 897.433594 90.453125 903.390625 88.75 C 909.34375 87.050781 915.253906 85.160156 921.109375 83.09375 C 926.957031 81.023438 932.757812 78.785156 938.46875 76.324219 C 941.332031 75.105469 944.171875 73.824219 946.988281 72.492188 C 948.398438 71.824219 949.796875 71.140625 951.1875 70.433594 C 952.578125 69.734375 953.96875 69.019531 955.328125 68.253906 C 952.777344 70.058594 950.128906 71.730469 947.445312 73.34375 C 944.765625 74.957031 942.03125 76.496094 939.273438 77.988281 C 933.753906 80.953125 928.105469 83.707031 922.363281 86.25 C 910.875 91.351562 899.007812 95.617188 886.898438 99.132812 C 880.835938 100.882812 874.714844 102.417969 868.546875 103.777344 C 862.375 105.128906 856.152344 106.25 849.898438 107.199219 C 843.644531 108.164062 837.351562 108.863281 831.035156 109.378906 L 828.667969 109.574219 L 826.296875 109.730469 C 824.714844 109.824219 823.132812 109.953125 821.550781 110.007812 L 816.800781 110.207031 L 812.042969 110.304688 C 805.703125 110.375 799.351562 110.285156 793.007812 109.957031 C 791.421875 109.894531 789.839844 109.757812 788.257812 109.660156 L 785.875 109.496094 L 783.507812 109.285156 C 781.921875 109.140625 780.339844 109.011719 778.761719 108.847656 L 774.023438 108.316406 C 767.71875 107.539062 761.421875 106.640625 755.179688 105.421875 L 752.835938 104.984375 C 752.054688 104.84375 751.28125 104.664062 750.5 104.503906 L 745.832031 103.523438 C 744.28125 103.179688 742.738281 102.804688 741.191406 102.445312 L 738.867188 101.898438 C 738.09375 101.714844 737.328125 101.503906 736.558594 101.308594 L 731.941406 100.109375 C 730.40625 99.695312 728.882812 99.238281 727.355469 98.804688 C 724.289062 97.957031 721.269531 96.960938 718.234375 96.019531 C 717.472656 95.785156 716.71875 95.53125 715.96875 95.273438 L 713.710938 94.503906 L 711.457031 93.730469 C 710.703125 93.472656 709.949219 93.222656 709.207031 92.9375 L 704.734375 91.289062 C 703.988281 91.011719 703.242188 90.742188 702.5 90.457031 L 700.285156 89.582031 L 695.855469 87.816406 C 694.386719 87.214844 692.929688 86.574219 691.46875 85.957031 L 689.277344 85.023438 C 688.542969 84.710938 687.8125 84.398438 687.09375 84.0625 L 682.757812 82.089844 L 680.59375 81.097656 L 678.453125 80.058594 L 674.167969 77.972656 L 673.097656 77.449219 L 672.042969 76.902344 L 669.925781 75.8125 L 665.695312 73.628906 C 644.03125 62.136719 621.238281 52.796875 597.609375 46.351562 C 596.875 46.148438 596.140625 45.929688 595.398438 45.738281 L 593.175781 45.171875 C 591.691406 44.796875 590.210938 44.40625 588.722656 44.042969 L 584.25 43.015625 C 583.503906 42.847656 582.761719 42.660156 582.011719 42.507812 L 579.761719 42.046875 C 573.773438 40.773438 567.738281 39.726562 561.679688 38.820312 C 549.554688 37.0625 537.316406 36.019531 525.042969 35.761719 C 512.769531 35.503906 500.464844 35.980469 488.210938 37.226562 C 482.085938 37.84375 475.976562 38.671875 469.886719 39.648438 C 463.796875 40.621094 457.734375 41.804688 451.703125 43.15625 C 445.667969 44.492188 439.675781 46.039062 433.71875 47.742188 C 427.765625 49.445312 421.859375 51.335938 416.003906 53.402344 C 410.15625 55.476562 404.355469 57.714844 398.640625 60.175781 C 395.777344 61.394531 392.941406 62.675781 390.125 64.011719 C 388.714844 64.675781 387.316406 65.367188 385.925781 66.070312 C 384.535156 66.769531 383.148438 67.488281 381.785156 68.253906 " fill-opacity="1" fill-rule="nonzero"/></g><g clip-path="url(#358cde4326)"><path fill="#0097b2" d="M 897.097656 97.347656 C 899.648438 95.539062 902.296875 93.871094 904.980469 92.257812 C 907.664062 90.644531 910.398438 89.109375 913.15625 87.617188 C 918.679688 84.652344 924.324219 81.894531 930.070312 79.359375 C 941.554688 74.261719 953.425781 69.992188 965.535156 66.480469 C 971.589844 64.730469 977.714844 63.195312 983.882812 61.839844 C 990.050781 60.484375 996.277344 59.367188 1002.527344 58.414062 C 1004.09375 58.191406 1005.65625 57.953125 1007.226562 57.742188 L 1011.9375 57.15625 C 1015.085938 56.816406 1018.234375 56.480469 1021.390625 56.238281 L 1023.757812 56.039062 L 1026.132812 55.886719 C 1027.710938 55.792969 1029.292969 55.664062 1030.875 55.609375 L 1035.628906 55.40625 L 1040.382812 55.308594 C 1046.726562 55.242188 1053.074219 55.328125 1059.414062 55.660156 C 1061.003906 55.722656 1062.585938 55.851562 1064.167969 55.953125 L 1066.542969 56.117188 L 1068.917969 56.328125 C 1070.5 56.476562 1072.082031 56.605469 1073.664062 56.765625 L 1078.398438 57.300781 C 1084.703125 58.082031 1091.003906 58.96875 1097.242188 60.191406 L 1099.585938 60.625 C 1100.367188 60.769531 1101.144531 60.945312 1101.921875 61.105469 L 1106.589844 62.085938 C 1108.140625 62.433594 1109.683594 62.808594 1111.234375 63.167969 L 1113.554688 63.714844 C 1114.328125 63.898438 1115.09375 64.109375 1115.863281 64.304688 C 1128.1875 67.449219 1140.320312 71.355469 1152.140625 76.027344 L 1156.570312 77.789062 C 1158.039062 78.390625 1159.492188 79.027344 1160.957031 79.648438 L 1163.148438 80.582031 C 1163.878906 80.890625 1164.609375 81.203125 1165.328125 81.539062 L 1171.832031 84.503906 L 1173.972656 85.542969 L 1178.253906 87.628906 L 1179.324219 88.152344 L 1180.382812 88.695312 L 1186.730469 91.972656 C 1208.398438 103.457031 1231.191406 112.792969 1254.816406 119.234375 C 1255.554688 119.4375 1256.289062 119.65625 1257.03125 119.847656 L 1259.253906 120.414062 C 1260.738281 120.789062 1262.21875 121.179688 1263.703125 121.542969 L 1268.179688 122.570312 C 1268.925781 122.738281 1269.667969 122.925781 1270.417969 123.078125 L 1272.667969 123.542969 C 1278.652344 124.8125 1284.691406 125.851562 1290.75 126.765625 C 1302.871094 128.523438 1315.109375 129.558594 1327.382812 129.824219 C 1339.65625 130.070312 1351.964844 129.605469 1364.214844 128.351562 C 1370.339844 127.738281 1376.449219 126.914062 1382.535156 125.933594 C 1388.628906 124.960938 1394.691406 123.78125 1400.722656 122.429688 C 1406.757812 121.09375 1412.746094 119.546875 1418.699219 117.84375 C 1424.65625 116.144531 1430.566406 114.253906 1436.417969 112.1875 C 1442.269531 110.117188 1448.070312 107.878906 1453.78125 105.417969 C 1456.644531 104.199219 1459.484375 102.917969 1462.300781 101.582031 C 1463.707031 100.917969 1465.109375 100.230469 1466.5 99.527344 C 1467.890625 98.828125 1469.28125 98.109375 1470.640625 97.347656 C 1468.089844 99.152344 1465.441406 100.824219 1462.753906 102.4375 C 1460.074219 104.050781 1457.339844 105.589844 1454.585938 107.078125 C 1449.0625 110.046875 1443.417969 112.800781 1437.671875 115.339844 C 1426.1875 120.441406 1414.316406 124.710938 1402.210938 128.226562 C 1396.148438 129.972656 1390.027344 131.511719 1383.859375 132.867188 C 1377.6875 134.21875 1371.464844 135.34375 1365.210938 136.292969 C 1358.957031 137.257812 1352.664062 137.957031 1346.347656 138.472656 L 1343.976562 138.667969 L 1341.609375 138.820312 C 1340.023438 138.917969 1338.445312 139.042969 1336.863281 139.101562 L 1332.109375 139.300781 L 1327.355469 139.398438 C 1321.015625 139.46875 1314.664062 139.378906 1308.320312 139.050781 C 1306.734375 138.988281 1305.152344 138.851562 1303.566406 138.75 L 1301.1875 138.589844 L 1298.816406 138.378906 C 1297.234375 138.234375 1295.652344 138.105469 1294.074219 137.941406 L 1289.335938 137.40625 C 1283.03125 136.632812 1276.730469 135.734375 1270.492188 134.515625 L 1268.148438 134.078125 C 1267.367188 133.9375 1266.59375 133.757812 1265.8125 133.597656 L 1261.144531 132.617188 C 1259.59375 132.269531 1258.050781 131.894531 1256.5 131.539062 L 1254.179688 130.992188 C 1253.40625 130.808594 1252.640625 130.597656 1251.871094 130.402344 L 1247.253906 129.203125 C 1245.71875 128.789062 1244.195312 128.332031 1242.664062 127.894531 C 1239.601562 127.050781 1236.582031 126.054688 1233.542969 125.109375 C 1232.785156 124.878906 1232.03125 124.625 1231.277344 124.367188 L 1229.023438 123.597656 L 1226.765625 122.824219 C 1226.015625 122.566406 1225.261719 122.316406 1224.519531 122.03125 L 1220.046875 120.382812 C 1219.300781 120.105469 1218.554688 119.835938 1217.8125 119.550781 L 1215.597656 118.671875 L 1211.167969 116.910156 C 1209.699219 116.304688 1208.242188 115.667969 1206.777344 115.050781 L 1204.589844 114.113281 C 1203.855469 113.804688 1203.125 113.492188 1202.40625 113.15625 L 1198.070312 111.183594 L 1195.902344 110.191406 L 1193.765625 109.148438 L 1189.480469 107.066406 L 1188.410156 106.542969 L 1187.351562 105.996094 L 1185.238281 104.90625 L 1181.007812 102.71875 C 1159.34375 91.230469 1136.550781 81.890625 1112.921875 75.445312 C 1112.183594 75.242188 1111.453125 75.023438 1110.710938 74.832031 L 1108.488281 74.265625 C 1107.003906 73.890625 1105.523438 73.5 1104.035156 73.136719 L 1099.5625 72.105469 C 1098.816406 71.941406 1098.070312 71.753906 1097.320312 71.601562 L 1095.074219 71.140625 C 1089.085938 69.867188 1083.050781 68.820312 1076.992188 67.910156 C 1064.867188 66.152344 1052.628906 65.113281 1040.355469 64.851562 C 1028.082031 64.597656 1015.773438 65.074219 1003.523438 66.320312 C 997.398438 66.9375 991.289062 67.765625 985.199219 68.742188 C 979.105469 69.714844 973.042969 70.898438 967.011719 72.246094 C 960.980469 73.585938 954.984375 75.132812 949.03125 76.835938 C 943.078125 78.539062 937.167969 80.429688 931.316406 82.496094 C 925.464844 84.570312 919.667969 86.808594 913.949219 89.265625 C 911.089844 90.488281 908.253906 91.769531 905.4375 93.105469 C 904.027344 93.769531 902.628906 94.460938 901.238281 95.164062 C 899.84375 95.863281 898.460938 96.578125 897.097656 97.347656 " fill-opacity="1" fill-rule="nonzero"/></g></svg>